<svg xmlns="http://www.w3.org/2000/svg" version="1.1" viewBox="0 0 693 1270" width="693" height="1270"><defs></defs><g><g class="header" data-source-line="2"><text x="503.35" y="10" font-size="10" fill="#888888" xml:space="preserve" style="white-space: pre" font-family="sans-serif">Diagrama de Contexto - arc42 (Seção 3.1)</text></g><g class="title" data-source-line="3"><text x="240.47" y="36" font-size="14" fill="#000000" xml:space="preserve" style="white-space: pre" font-weight="bold" font-family="sans-serif">Diagrama de contexto (eFCaaS)</text></g><g class="cluster" data-entity="Sistema" data-qualified-name="Sistema" id="ent0012" data-source-line="23"><rect x="112.37" y="57" width="330.07" height="1200" rx="2.50" ry="2.50" fill="#F0F8FF" stroke="#181818" stroke-width="1"></rect><text x="222.93" y="72" font-size="14" fill="#000000" xml:space="preserve" style="white-space: pre" font-weight="bold" font-family="sans-serif">Sistema eFCaaS</text></g><g class="cluster" data-entity="M.dulos Internos" data-qualified-name="Sistema.M.dulos Internos" id="ent0013" data-source-line="25"><path d="M138.87,100 L256.53,100 A3.75,3.75 0 0 1 259.03,102.50 L266.03,122 L415.94,122 A2.50,2.50 0 0 1 418.44,124.50 L418.44,1230.50 A2.50,2.50 0 0 1 415.94,1233 L138.87,1233 A2.50,2.50 0 0 1 136.37,1230.50 L136.37,102.50 A2.50,2.50 0 0 1 138.87,100" fill="#00000000" stroke="#000000" stroke-width="1.50"></path><line x1="136.37" y1="122" x2="266.03" y2="122" stroke="#000000" stroke-width="1.50"></line><text x="140.37" y="115" font-size="14" fill="#000000" xml:space="preserve" style="white-space: pre" font-weight="bold" font-family="sans-serif">Módulos Internos</text></g><g class="entity" data-entity="UC_GestaoPerfil" data-qualified-name="Sistema.M.dulos Internos.UC_GestaoPerfil" id="ent0014" data-source-line="26"><ellipse cx="277.40" cy="1195.00" rx="96.08" ry="21.62" fill="#F1F1F1" stroke="#181818" stroke-width="0.50"></ellipse><text x="193.35" y="1199.50" font-size="14" fill="#000000" xml:space="preserve" style="white-space: pre" font-family="sans-serif">Gestão de perfil de usuário</text></g><g class="entity" data-entity="UC_Parecer" data-qualified-name="Sistema.M.dulos Internos.UC_Parecer" id="ent0015" data-source-line="27"><ellipse cx="277.40" cy="963.00" rx="69.64" ry="16.33" fill="#F1F1F1" stroke="#181818" stroke-width="0.50"></ellipse><text x="224.10" y="967.50" font-size="14" fill="#000000" xml:space="preserve" style="white-space: pre" font-family="sans-serif">Geração Parecer</text></g><g class="entity" data-entity="UC_Evidencias" data-qualified-name="Sistema.M.dulos Internos.UC_Evidencias" id="ent0016" data-source-line="28"><ellipse cx="277.40" cy="1120.00" rx="81.31" ry="18.66" fill="#F1F1F1" stroke="#181818" stroke-width="0.50"></ellipse><text x="210.08" y="1124.50" font-size="14" fill="#000000" xml:space="preserve" style="white-space: pre" font-family="sans-serif">Gestão de evidências</text></g><g class="entity" data-entity="UC_Admin" data-qualified-name="Sistema.M.dulos Internos.UC_Admin" id="ent0017" data-source-line="29"><ellipse cx="277.40" cy="162.00" rx="124.56" ry="27.31" fill="#F1F1F1" stroke="#181818" stroke-width="0.50"></ellipse><text x="162.61" y="166.50" font-size="14" fill="#000000" xml:space="preserve" style="white-space: pre" font-family="sans-serif">Gestão de Usuários e Configurações</text></g><g class="entity" data-entity="UC_Curador" data-qualified-name="Sistema.M.dulos Internos.UC_Curador" id="ent0018" data-source-line="30"><ellipse cx="277.40" cy="741.00" rx="125.04" ry="27.41" fill="#F1F1F1" stroke="#181818" stroke-width="0.50"></ellipse><text x="162.10" y="745.50" font-size="14" fill="#000000" xml:space="preserve" style="white-space: pre" font-family="sans-serif">Triagem e Gestão de Fluxo (Kanban)</text></g><g class="entity" data-entity="UC_RevisaoChecagem" data-qualified-name="Sistema.M.dulos Internos.UC_RevisaoChecagem" id="ent0019" data-source-line="31"><ellipse cx="277.40" cy="657.00" rx="96.08" ry="21.62" fill="#F1F1F1" stroke="#181818" stroke-width="0.50"></ellipse><text x="193.35" y="661.50" font-size="14" fill="#000000" xml:space="preserve" style="white-space: pre" font-family="sans-serif">Revisão final da checagem</text></g><g class="entity" data-entity="UC_Checador" data-qualified-name="Sistema.M.dulos Internos.UC_Checador" id="ent0020" data-source-line="32"><ellipse cx="277.40" cy="894.00" rx="78.00" ry="18.00" fill="#F1F1F1" stroke="#181818" stroke-width="0.50"></ellipse><text x="213.96" y="898.50" font-size="14" fill="#000000" xml:space="preserve" style="white-space: pre" font-family="sans-serif">Análise de conteúdo</text></g><g class="entity" data-entity="UC_Hub" data-qualified-name="Sistema.M.dulos Internos.UC_Hub" id="ent0021" data-source-line="33"><ellipse cx="277.40" cy="1040.00" rx="118.69" ry="26.14" fill="#F1F1F1" stroke="#181818" stroke-width="0.50"></ellipse><text x="168.84" y="1044.50" font-size="14" fill="#000000" xml:space="preserve" style="white-space: pre" font-family="sans-serif">Hub de Ferramentas e Integrações</text></g><g class="entity" data-entity="UC_Dash" data-qualified-name="Sistema.M.dulos Internos.UC_Dash" id="ent0022" data-source-line="34"><ellipse cx="277.40" cy="822.00" rx="82.30" ry="18.86" fill="#F1F1F1" stroke="#181818" stroke-width="0.50"></ellipse><text x="208.93" y="826.50" font-size="14" fill="#000000" xml:space="preserve" style="white-space: pre" font-family="sans-serif">Dashboard e Métricas</text></g><g class="entity" data-entity="UC_GestaoPadroes" data-qualified-name="Sistema.M.dulos Internos.UC_GestaoPadroes" id="ent0023" data-source-line="35"><ellipse cx="277.40" cy="322.00" rx="122.72" ry="26.94" fill="#F1F1F1" stroke="#181818" stroke-width="0.50"></ellipse><text x="164.56" y="326.50" font-size="14" fill="#000000" xml:space="preserve" style="white-space: pre" font-family="sans-serif">Gestão de Classificações e Padrões</text></g><g class="entity" data-entity="UC_GestaoProcesso" data-qualified-name="Sistema.M.dulos Internos.UC_GestaoProcesso" id="ent0024" data-source-line="36"><ellipse cx="277.40" cy="574.00" rx="118.33" ry="26.07" fill="#F1F1F1" stroke="#181818" stroke-width="0.50"></ellipse><text x="169.23" y="578.50" font-size="14" fill="#000000" xml:space="preserve" style="white-space: pre" font-family="sans-serif">Gestão do processo de Checagem</text></g><g class="entity" data-entity="UC_AdmIa" data-qualified-name="Sistema.M.dulos Internos.UC_AdmIa" id="ent0025" data-source-line="37"><ellipse cx="277.40" cy="242.00" rx="77.32" ry="17.86" fill="#F1F1F1" stroke="#181818" stroke-width="0.50"></ellipse><text x="214.76" y="246.50" font-size="14" fill="#000000" xml:space="preserve" style="white-space: pre" font-family="sans-serif">Administração da IA</text></g><g class="entity" data-entity="UC_GestaoHub" data-qualified-name="Sistema.M.dulos Internos.UC_GestaoHub" id="ent0026" data-source-line="38"><ellipse cx="277.40" cy="489.00" rx="106.03" ry="23.61" fill="#F1F1F1" stroke="#181818" stroke-width="0.50"></ellipse><text x="182.45" y="493.50" font-size="14" fill="#000000" xml:space="preserve" style="white-space: pre" font-family="sans-serif">Gestão do hub de ferramentas</text></g><g class="entity" data-entity="UC_PersPlataforma" data-qualified-name="Sistema.M.dulos Internos.UC_PersPlataforma" id="ent0027" data-source-line="39"><ellipse cx="277.40" cy="407.00" rx="103.88" ry="23.18" fill="#F1F1F1" stroke="#181818" stroke-width="0.50"></ellipse><text x="184.79" y="411.50" font-size="14" fill="#000000" xml:space="preserve" style="white-space: pre" font-family="sans-serif">Personalização da plataforma</text></g><g class="entity" data-entity="Admin" data-qualified-name="Admin" id="ent0002" data-source-line="9"><circle cx="49.18" cy="385" r="16" fill="#FFD700" stroke="#181818" stroke-width="0.50"></circle><path d="M49.18,405 C53.18,405 56.18,405 60.18,401 C68.18,401 76.18,409 76.18,417 L76.18,421 C76.18,425 72.18,429 68.18,429 L30.18,429 C26.18,429 22.18,425 22.18,421 L22.18,417 C22.18,409 30.18,401 38.18,401 C42.18,405 45.18,405 49.18,405" fill="#FFD700" stroke="#181818" stroke-width="0.50"></path><text x="6" y="442.50" font-size="14" fill="#000000" xml:space="preserve" style="white-space: pre" font-family="sans-serif">Administrador</text></g><g class="entity" data-entity="Curador" data-qualified-name="Curador" id="ent0003" data-source-line="10"><circle cx="49.18" cy="719" r="16" fill="#90EE90" stroke="#181818" stroke-width="0.50"></circle><path d="M49.18,739 C53.18,739 56.18,739 60.18,735 C68.18,735 76.18,743 76.18,751 L76.18,755 C76.18,759 72.18,763 68.18,763 L30.18,763 C26.18,763 22.18,759 22.18,755 L22.18,751 C22.18,743 30.18,735 38.18,735 C42.18,739 45.18,739 49.18,739" fill="#90EE90" stroke="#181818" stroke-width="0.50"></path><text x="23.89" y="776.50" font-size="14" fill="#000000" xml:space="preserve" style="white-space: pre" font-family="sans-serif">Curador</text></g><g class="entity" data-entity="Checador" data-qualified-name="Checador" id="ent0004" data-source-line="11"><circle cx="49.18" cy="979" r="16" fill="#87CEFA" stroke="#181818" stroke-width="0.50"></circle><path d="M49.18,999 C53.18,999 56.18,999 60.18,995 C68.18,995 76.18,1003 76.18,1011 L76.18,1015 C76.18,1019 72.18,1023 68.18,1023 L30.18,1023 C26.18,1023 22.18,1019 22.18,1015 L22.18,1011 C22.18,1003 30.18,995 38.18,995 C42.18,999 45.18,999 49.18,999" fill="#87CEFA" stroke="#181818" stroke-width="0.50"></path><text x="18.83" y="1036.50" font-size="14" fill="#000000" xml:space="preserve" style="white-space: pre" font-family="sans-serif">Checador</text></g><g class="entity" data-entity="Email" data-qualified-name="Email" id="ent0005" data-source-line="14"><rect x="508.76" y="136" width="129.70" height="52" rx="2.50" ry="2.50" fill="#FFFFFF" stroke="#181818" stroke-width="0.50"></rect><text x="542.49" y="159" font-size="14" fill="#000000" xml:space="preserve" style="white-space: pre" font-style="italic" font-family="sans-serif">«System»</text><text x="518.76" y="175" font-size="14" fill="#000000" xml:space="preserve" style="white-space: pre" font-family="sans-serif">Serviço de E-mail</text></g><g class="entity" data-entity="GoogleAPI" data-qualified-name="GoogleAPI" id="ent0006" data-source-line="15"><rect x="490.47" y="1036" width="166.29" height="52" rx="2.50" ry="2.50" fill="#FFFFFF" stroke="#181818" stroke-width="0.50"></rect><text x="542.49" y="1059" font-size="14" fill="#000000" xml:space="preserve" style="white-space: pre" font-style="italic" font-family="sans-serif">«System»</text><text x="500.47" y="1075" font-size="14" fill="#000000" xml:space="preserve" style="white-space: pre" font-family="sans-serif">Google Fact Check API</text></g><g class="entity" data-entity="BuscaReversa" data-qualified-name="BuscaReversa" id="ent0007" data-source-line="16"><rect x="516.15" y="1123" width="114.93" height="52" rx="2.50" ry="2.50" fill="#FFFFFF" stroke="#181818" stroke-width="0.50"></rect><text x="542.49" y="1146" font-size="14" fill="#000000" xml:space="preserve" style="white-space: pre" font-style="italic" font-family="sans-serif">«System»</text><text x="526.15" y="1162" font-size="14" fill="#000000" xml:space="preserve" style="white-space: pre" font-family="sans-serif">Busca Reversa</text></g><g class="entity" data-entity="Ferramenta" data-qualified-name="Ferramenta" id="ent0008" data-source-line="17"><rect x="462.44" y="949" width="222.34" height="52" rx="2.50" ry="2.50" fill="#FFFFFF" stroke="#181818" stroke-width="0.50"></rect><text x="542.48" y="972" font-size="14" fill="#000000" xml:space="preserve" style="white-space: pre" font-style="italic" font-family="sans-serif">«System»</text><text x="472.44" y="988" font-size="14" fill="#000000" xml:space="preserve" style="white-space: pre" font-family="sans-serif">Ferramenta Análise Áudio/Vídeo</text></g><g class="entity" data-entity="IA" data-qualified-name="IA" id="ent0009" data-source-line="18"><rect x="527.43" y="775" width="92.37" height="52" rx="2.50" ry="2.50" fill="#FFFFFF" stroke="#181818" stroke-width="0.50"></rect><text x="542.49" y="798" font-size="14" fill="#000000" xml:space="preserve" style="white-space: pre" font-style="italic" font-family="sans-serif">«System»</text><text x="537.43" y="814" font-size="14" fill="#000000" xml:space="preserve" style="white-space: pre" font-family="sans-serif">Motor de IA</text></g><g class="entity" data-entity="DB" data-qualified-name="DB" id="ent0010" data-source-line="19"><rect x="511.85" y="1210" width="123.52" height="52" rx="2.50" ry="2.50" fill="#FFFFFF" stroke="#181818" stroke-width="0.50"></rect><text x="542.48" y="1233" font-size="14" fill="#000000" xml:space="preserve" style="white-space: pre" font-style="italic" font-family="sans-serif">«System»</text><text x="521.85" y="1249" font-size="14" fill="#000000" xml:space="preserve" style="white-space: pre" font-family="sans-serif">Banco de Dados</text></g><g class="entity" data-entity="Editor" data-qualified-name="Editor" id="ent0011" data-source-line="20"><rect x="518.48" y="862" width="110.28" height="52" rx="2.50" ry="2.50" fill="#FFFFFF" stroke="#181818" stroke-width="0.50"></rect><text x="542.49" y="885" font-size="14" fill="#000000" xml:space="preserve" style="white-space: pre" font-style="italic" font-family="sans-serif">«System»</text><text x="528.48" y="901" font-size="14" fill="#000000" xml:space="preserve" style="white-space: pre" font-family="sans-serif">Editor de texto</text></g><g class="link" data-entity-1="Admin" data-entity-2="UC_Admin" data-entity-1-uid="ent0002" data-entity-2-uid="ent0017" id="lnk28" data-source-line="45" data-link-type="dependency"><path d="M49.74,368.23 C51.41,323.25 61.19,249.8 104.37,207 C120.59,190.92 136.0827,182.1583 158.0527,175.2983" fill="none" stroke="#181818" stroke-width="1"></path><polygon points="163.78,173.51 154.00,172.37 159.01,175.00 156.38,180.01 163.78,173.51" fill="#181818" stroke="#181818" stroke-width="1"></polygon></g><g class="link" data-entity-1="Admin" data-entity-2="UC_Dash" data-entity-1-uid="ent0002" data-entity-2-uid="ent0022" id="lnk29" data-source-line="46" data-link-type="dependency"><path d="M56.45,445.62 C65.05,499.26 80.79,599.37 92.37,685 C95.39,707.4 89.1,769.33 104.37,786 C127.24,810.98 156.6523,820.4484 189.3923,823.8584" fill="none" stroke="#181818" stroke-width="1"></path><polygon points="195.36,824.48 186.82,819.57 190.39,823.96 185.99,827.53 195.36,824.48" fill="#181818" stroke="#181818" stroke-width="1"></polygon></g><g class="link" data-entity-1="Admin" data-entity-2="UC_GestaoProcesso" data-entity-1-uid="ent0002" data-entity-2-uid="ent0024" id="lnk30" data-source-line="47" data-link-type="dependency"><path d="M57.89,445.99 C65.28,473.32 79.18,508.65 104.37,530 C123.06,545.85 140.9583,554.4964 164.7183,561.0864" fill="none" stroke="#181818" stroke-width="1"></path><polygon points="170.50,562.69 162.90,556.43 165.68,561.35 160.76,564.14 170.50,562.69" fill="#181818" stroke="#181818" stroke-width="1"></polygon></g><g class="link" data-entity-1="Admin" data-entity-2="UC_GestaoPadroes" data-entity-1-uid="ent0002" data-entity-2-uid="ent0023" id="lnk31" data-source-line="48" data-link-type="dependency"><path d="M92.66,372.48 C96.51,370.1 100.43,367.89 104.37,366 C128.39,354.42 150.0046,347.127 175.7946,340.577" fill="none" stroke="#181818" stroke-width="1"></path><polygon points="181.61,339.10 171.90,337.44 176.76,340.33 173.87,345.19 181.61,339.10" fill="#181818" stroke="#181818" stroke-width="1"></polygon></g><g class="link" data-entity-1="Admin" data-entity-2="UC_AdmIa" data-entity-1-uid="ent0002" data-entity-2-uid="ent0025" id="lnk32" data-source-line="49" data-link-type="dependency"><path d="M56.51,368.22 C63.33,339.09 77.1,300.49 104.37,278 C130.85,256.16 161.3227,247.2744 193.8427,243.3744" fill="none" stroke="#181818" stroke-width="1"></path><polygon points="199.80,242.66 190.39,239.76 194.84,243.26 191.34,247.70 199.80,242.66" fill="#181818" stroke="#181818" stroke-width="1"></polygon></g><g class="link" data-entity-1="Admin" data-entity-2="UC_GestaoHub" data-entity-1-uid="ent0002" data-entity-2-uid="ent0026" id="lnk33" data-source-line="50" data-link-type="dependency"><path d="M92.63,441.59 C96.48,443.96 100.42,446.14 104.37,448 C130.75,460.45 155.3836,467.9953 183.3036,474.2153" fill="none" stroke="#181818" stroke-width="1"></path><polygon points="189.16,475.52 181.25,469.66 184.28,474.43 179.51,477.47 189.16,475.52" fill="#181818" stroke="#181818" stroke-width="1"></polygon></g><g class="link" data-entity-1="Admin" data-entity-2="UC_PersPlataforma" data-entity-1-uid="ent0002" data-entity-2-uid="ent0027" id="lnk34" data-source-line="51" data-link-type="dependency"><path d="M92.73,407 C115.64,407 138.98,407 167.46,407" fill="none" stroke="#181818" stroke-width="1"></path><polygon points="173.46,407 164.46,403 168.46,407 164.46,411 173.46,407" fill="#181818" stroke="#181818" stroke-width="1"></polygon></g><g class="link" data-entity-1="Curador" data-entity-2="UC_Curador" data-entity-1-uid="ent0003" data-entity-2-uid="ent0018" id="lnk35" data-source-line="53" data-link-type="dependency"><path d="M77.02,741 C96.22,741 117.57,741 145.89,741" fill="none" stroke="#181818" stroke-width="1"></path><polygon points="151.89,741 142.89,737 146.89,741 142.89,745 151.89,741" fill="#181818" stroke="#181818" stroke-width="1"></polygon></g><g class="link" data-entity-1="Curador" data-entity-2="UC_Dash" data-entity-1-uid="ent0003" data-entity-2-uid="ent0022" id="lnk36" data-source-line="54" data-link-type="dependency"><path d="M77.04,767.66 C85.24,774.54 94.67,781.32 104.37,786 C134.46,800.52 164.3613,808.2258 195.5113,813.4058" fill="none" stroke="#181818" stroke-width="1"></path><polygon points="201.43,814.39 193.21,808.97 196.50,813.57 191.90,816.86 201.43,814.39" fill="#181818" stroke="#181818" stroke-width="1"></polygon></g><g class="link" data-entity-1="Curador" data-entity-2="UC_RevisaoChecagem" data-entity-1-uid="ent0003" data-entity-2-uid="ent0019" id="lnk37" data-source-line="55" data-link-type="dependency"><path d="M77.09,714.44 C85.3,707.56 94.71,700.76 104.37,696 C131.83,682.46 158.2071,674.7298 187.3271,668.8898" fill="none" stroke="#181818" stroke-width="1"></path><polygon points="193.21,667.71 183.60,665.56 188.31,668.69 185.17,673.40 193.21,667.71" fill="#181818" stroke="#181818" stroke-width="1"></polygon></g><g class="link" data-entity-1="Checador" data-entity-2="UC_Checador" data-entity-1-uid="ent0004" data-entity-2-uid="ent0020" id="lnk38" data-source-line="57" data-link-type="dependency"><path d="M71.55,962.3 C80.2,949.91 91.27,937.27 104.37,929 C132.84,911.02 162.8471,902.8659 194.5071,898.4659" fill="none" stroke="#181818" stroke-width="1"></path><polygon points="200.45,897.64 190.99,894.92 195.50,898.33 192.09,902.84 200.45,897.64" fill="#181818" stroke="#181818" stroke-width="1"></polygon></g><g class="link" data-entity-1="Checador" data-entity-2="UC_Hub" data-entity-1-uid="ent0004" data-entity-2-uid="ent0021" id="lnk39" data-source-line="58" data-link-type="dependency"><path d="M79.76,1006.1 C105.99,1010.62 139.837,1016.4617 176.767,1022.8217" fill="none" stroke="#181818" stroke-width="1"></path><polygon points="182.68,1023.84 174.49,1018.37 177.75,1022.99 173.13,1026.25 182.68,1023.84" fill="#181818" stroke="#181818" stroke-width="1"></polygon></g><g class="link" data-entity-1="Checador" data-entity-2="UC_Dash" data-entity-1-uid="ent0004" data-entity-2-uid="ent0022" id="lnk40" data-source-line="59" data-link-type="dependency"><path d="M54.79,962.02 C60.71,929.69 74.12,884.94 104.37,859 C129.29,837.62 157.6766,828.4923 189.1166,824.1423" fill="none" stroke="#181818" stroke-width="1"></path><polygon points="195.06,823.32 185.60,820.59 190.11,824.01 186.69,828.52 195.06,823.32" fill="#181818" stroke="#181818" stroke-width="1"></polygon></g><g class="link" data-entity-1="Checador" data-entity-2="UC_Evidencias" data-entity-1-uid="ent0004" data-entity-2-uid="ent0016" id="lnk41" data-source-line="60" data-link-type="dependency"><path d="M67.22,1039.92 C76.09,1055.88 88.45,1073.13 104.37,1084 C131.45,1102.51 160.1937,1110.948 191.3037,1115.518" fill="none" stroke="#181818" stroke-width="1"></path><polygon points="197.24,1116.39 188.92,1111.12 192.29,1115.66 187.75,1119.04 197.24,1116.39" fill="#181818" stroke="#181818" stroke-width="1"></polygon></g><g class="link" data-entity-1="Checador" data-entity-2="UC_Parecer" data-entity-1-uid="ent0004" data-entity-2-uid="ent0015" id="lnk42" data-source-line="61" data-link-type="dependency"><path d="M79.76,996.03 C115.21,990.08 169.4729,980.9637 213.9529,973.4937" fill="none" stroke="#181818" stroke-width="1"></path><polygon points="219.87,972.50 210.33,970.05 214.94,973.33 211.66,977.94 219.87,972.50" fill="#181818" stroke="#181818" stroke-width="1"></polygon></g><g class="link" data-entity-1="Checador" data-entity-2="UC_GestaoPerfil" data-entity-1-uid="ent0004" data-entity-2-uid="ent0014" id="lnk43" data-source-line="62" data-link-type="dependency"><path d="M53.34,1039.92 C58.33,1075.31 71.19,1126.39 104.37,1156 C125.84,1175.17 148.8495,1184.379 176.8295,1189.799" fill="none" stroke="#181818" stroke-width="1"></path><polygon points="182.72,1190.94 174.64,1185.30 177.81,1189.99 173.12,1193.16 182.72,1190.94" fill="#181818" stroke="#181818" stroke-width="1"></polygon></g><g class="link" data-entity-1="UC_Admin" data-entity-2="Email" data-entity-1-uid="ent0017" data-entity-2-uid="ent0005" id="lnk44" data-source-line="65" data-link-type="dependency"><path d="M402.32,162 C438.91,162 471.47,162 502.62,162" fill="none" stroke="#181818" stroke-width="1"></path><polygon points="508.62,162 499.62,158 503.62,162 499.62,166 508.62,162" fill="#181818" stroke="#181818" stroke-width="1"></polygon></g><g class="link" data-entity-1="UC_Curador" data-entity-2="IA" data-entity-1-uid="ent0018" data-entity-2-uid="ent0009" id="lnk45" data-source-line="66" data-link-type="dependency"><path d="M370.28,759.74 C422.38,770.36 479.4109,781.9916 521.1109,790.4916" fill="none" stroke="#181818" stroke-width="1"></path><polygon points="526.99,791.69 518.97,785.97 522.09,790.69 517.37,793.81 526.99,791.69" fill="#181818" stroke="#181818" stroke-width="1"></polygon></g><g class="link" data-entity-1="UC_Checador" data-entity-2="IA" data-entity-1-uid="ent0020" data-entity-2-uid="ent0009" id="lnk46" data-source-line="67" data-link-type="dependency"><path d="M352.25,888.64 C384.07,883.86 420.71,874.86 450.44,858 C457.28,854.12 455.97,849.46 462.44,845 C482.04,831.52 500.7106,823.2043 521.5206,815.9943" fill="none" stroke="#181818" stroke-width="1"></path><polygon points="527.19,814.03 517.38,813.20 522.47,815.67 520.00,820.76 527.19,814.03" fill="#181818" stroke="#181818" stroke-width="1"></polygon></g><g class="link" data-entity-1="UC_AdmIa" data-entity-2="IA" data-entity-1-uid="ent0025" data-entity-2-uid="ent0009" id="lnk47" data-source-line="68" data-link-type="dependency"><path d="M354.64,240.41 C388.08,243.72 425.34,253.48 450.44,278 C523.14,349.03 560.0292,672.3692 569.5492,768.5792" fill="none" stroke="#181818" stroke-width="1"></path><polygon points="570.14,774.55 573.23,765.20 569.65,769.57 565.27,765.99 570.14,774.55" fill="#181818" stroke="#181818" stroke-width="1"></polygon></g><g class="link" data-entity-1="UC_Hub" data-entity-2="GoogleAPI" data-entity-1-uid="ent0021" data-entity-2-uid="ent0006" id="lnk48" data-source-line="69" data-link-type="dependency"><path d="M390.47,1048.38 C423.6,1050.86 453.2567,1053.0727 484.1567,1055.3827" fill="none" stroke="#181818" stroke-width="1"></path><polygon points="490.14,1055.83 481.46,1051.17 485.15,1055.46 480.87,1059.15 490.14,1055.83" fill="#181818" stroke="#181818" stroke-width="1"></polygon></g><g class="link" data-entity-1="UC_Dash" data-entity-2="IA" data-entity-1-uid="ent0022" data-entity-2-uid="ent0009" id="lnk49" data-source-line="70" data-link-type="dependency"><path d="M356.47,816.43 C410.95,812.54 475.7752,807.9066 521.2252,804.6666" fill="none" stroke="#181818" stroke-width="1"></path><polygon points="527.21,804.24 517.95,800.89 522.22,804.60 518.52,808.87 527.21,804.24" fill="#181818" stroke="#181818" stroke-width="1"></polygon></g><g class="link" data-entity-1="UC_Hub" data-entity-2="BuscaReversa" data-entity-1-uid="ent0021" data-entity-2-uid="ent0007" id="lnk50" data-source-line="71" data-link-type="dependency"><path d="M382.27,1052.48 C406.37,1059.03 430.7,1068.96 450.44,1084 C459,1090.51 454.33,1097.95 462.44,1105 C477.67,1118.25 491.7514,1125.7491 510.2814,1132.4891" fill="none" stroke="#181818" stroke-width="1"></path><polygon points="515.92,1134.54 508.83,1127.70 511.22,1132.83 506.09,1135.22 515.92,1134.54" fill="#181818" stroke="#181818" stroke-width="1"></polygon></g><g class="link" data-entity-1="UC_Hub" data-entity-2="Ferramenta" data-entity-1-uid="ent0021" data-entity-2-uid="ent0008" id="lnk51" data-source-line="72" data-link-type="dependency"><path d="M362.32,1021.46 C393.4,1014.59 423.2713,1007.9946 456.3513,1000.6846" fill="none" stroke="#181818" stroke-width="1"></path><polygon points="462.21,999.39 452.56,997.43 457.33,1000.47 454.29,1005.24 462.21,999.39" fill="#181818" stroke="#181818" stroke-width="1"></polygon></g><g class="link" data-entity-1="UC_Evidencias" data-entity-2="DB" data-entity-1-uid="ent0016" data-entity-2-uid="ent0010" id="lnk52" data-source-line="73" data-link-type="dependency"><path d="M358.87,1120.09 C390.73,1124.07 425.61,1133.88 450.44,1156 C463.04,1167.22 450.87,1179.73 462.44,1192 C475.59,1205.93 488.0958,1213.4599 505.8558,1220.0599" fill="none" stroke="#181818" stroke-width="1"></path><polygon points="511.48,1222.15 504.44,1215.27 506.79,1220.41 501.65,1222.76 511.48,1222.15" fill="#181818" stroke="#181818" stroke-width="1"></polygon></g><g class="link" data-entity-1="UC_Parecer" data-entity-2="IA" data-entity-1-uid="ent0015" data-entity-2-uid="ent0009" id="lnk53" data-source-line="74" data-link-type="dependency"><path d="M345.17,967.17 C381.29,965.65 423.84,957.06 450.44,929 C476.39,901.63 439.13,874.64 462.44,845 C478.1,825.09 498.3464,815.6727 521.1764,809.6827" fill="none" stroke="#181818" stroke-width="1"></path><polygon points="526.98,808.16 517.26,806.58 522.14,809.43 519.29,814.31 526.98,808.16" fill="#181818" stroke="#181818" stroke-width="1"></polygon></g><g class="link" data-entity-1="UC_Parecer" data-entity-2="Editor" data-entity-1-uid="ent0015" data-entity-2-uid="ent0011" id="lnk54" data-source-line="75" data-link-type="dependency"><path d="M335.39,953.64 C369.1,947.63 412.48,939.08 450.44,929 C472.83,923.06 491.4083,917.1774 512.3583,909.9474" fill="none" stroke="#181818" stroke-width="1"></path><polygon points="518.03,907.99 508.22,907.14 513.30,909.62 510.83,914.71 518.03,907.99" fill="#181818" stroke="#181818" stroke-width="1"></polygon></g></g></svg>
